<svg width="119" height="25" viewBox="0 0 119 25" fill="none" xmlns="http://www.w3.org/2000/svg">
<path d="M16.672 24H0.608L4.672 0.959999H20.736L19.84 5.952H9.536L8.8 10.272H17.312L16.416 15.264H7.904L7.264 19.008H17.568L16.672 24ZM29.83 18.4L35.91 0.959999H42.15L33.414 24H23.174L22.918 0.959999H29.19L29.094 18.4H29.83ZM53.2123 0.735998C58.3536 0.735998 60.9243 2.83733 60.9243 7.04C60.9243 7.744 60.8496 8.50133 60.7003 9.312L59.5803 15.712C59.0683 18.6773 57.9589 20.8747 56.2523 22.304C54.5456 23.7333 52.1456 24.448 49.0523 24.448C45.9589 24.448 43.8043 23.7333 42.5883 22.304C41.7563 21.3227 41.3403 19.968 41.3403 18.24C41.3403 17.472 41.4256 16.6293 41.5963 15.712L42.7163 9.312C43.7189 3.59467 47.2176 0.735998 53.2123 0.735998ZM49.9163 19.488C50.9829 19.488 51.8363 19.2107 52.4763 18.656C53.1163 18.1013 53.5643 17.0773 53.8203 15.584L54.9083 9.44C54.9723 9.01333 55.0043 8.62933 55.0043 8.288C55.0043 6.56 54.1296 5.696 52.3803 5.696C50.1829 5.73867 48.8709 6.98667 48.4443 9.44L47.3563 15.584C47.2709 16.1173 47.2283 16.672 47.2283 17.248C47.2283 18.7413 48.1243 19.488 49.9163 19.488ZM76.6063 24H62.0143L66.0783 0.959999H71.8383L68.6703 19.008H77.5023L76.6063 24ZM86.705 18.4L92.785 0.959999H99.025L90.289 24H80.049L79.793 0.959999H86.065L85.969 18.4H86.705ZM114.047 24H97.983L102.047 0.959999H118.111L117.215 5.952H106.911L106.175 10.272H114.687L113.791 15.264H105.279L104.639 19.008H114.943L114.047 24Z" fill="white" style="fill:white;fill-opacity:1;"/>
</svg>
